<?xml version="1.0" encoding="utf-8"?>
<!-- Generator: Adobe Illustrator 22.0.1, SVG Export Plug-In . SVG Version: 6.00 Build 0)  -->
<svg version="1.1" id="Layer_1" xmlns="http://www.w3.org/2000/svg" xmlns:xlink="http://www.w3.org/1999/xlink" x="0px" y="0px"
	 viewBox="0 0 800 800" style="enable-background:new 0 0 800 800;" xml:space="preserve">
<style type="text/css">
	.st0{fill:none;stroke:#8881F0;stroke-width:16;stroke-linecap:round;stroke-linejoin:round;stroke-miterlimit:10;}
</style>
<path class="st0" d="M400,611V355.9c0,0-33.1-120.4-145.8-120.4c0,0,9.9,22.1,9.9,57.4S255.3,499.5,389,510.5"/>
<path class="st0" d="M264.2,292.9c0,0-5.5-26.5-85-9.9c0,0,50.1,223.8,185.7,223.5"/>
<path class="st0" d="M400,611V355.9c0,0,33.1-120.4,145.8-120.4c0,0-9.9,22.1-9.9,57.4s8.8,206.5-124.8,217.6"/>
<path class="st0" d="M535.8,292.9c0,0,5.5-26.5,85-9.9c0,0-50.1,223.8-185.7,223.5"/>
<path class="st0" d="M327.1,255.9c0,0,72.9-34.8,72.9-67.9c0,0,34.7,64.9,78.7,64.5"/>
</svg>
