<?xml version="1.0" encoding="utf-8"?>
<!-- Generator: Adobe Illustrator 22.0.1, SVG Export Plug-In . SVG Version: 6.00 Build 0)  -->
<svg version="1.1" id="Layer_1" xmlns="http://www.w3.org/2000/svg" xmlns:xlink="http://www.w3.org/1999/xlink" x="0px" y="0px"
	 viewBox="0 0 800 800" style="enable-background:new 0 0 800 800;" xml:space="preserve">
<style type="text/css">
	.st0{fill:none;stroke:#8881F0;stroke-width:16;stroke-linecap:round;stroke-linejoin:round;stroke-miterlimit:10;}
</style>
<polygon class="st0" points="238,658 561,658 561,318 507,379 456,318 400,374 346,318 289,376 238,318 "/>
<path class="st0" d="M375,332c0-48,39-87,87-87s87,39,87,87"/>
<path class="st0" d="M262.1,345.4V191c0,0,5.9-50,55.9-50s56,48,56,48v158"/>
<polyline class="st0" points="374,190 490,190 490,249.7 "/>
<line class="st0" x1="299" y1="234" x2="345" y2="234"/>
<line class="st0" x1="299" y1="295" x2="345" y2="295"/>
</svg>
