<?xml version="1.0" encoding="utf-8"?>
<!-- Generator: Adobe Illustrator 22.0.1, SVG Export Plug-In . SVG Version: 6.00 Build 0)  -->
<svg version="1.1" id="Layer_1" xmlns="http://www.w3.org/2000/svg" xmlns:xlink="http://www.w3.org/1999/xlink" x="0px" y="0px"
	 viewBox="0 0 800 800" style="enable-background:new 0 0 800 800;" xml:space="preserve">
<style type="text/css">
	.st0{fill:none;stroke:#8881F0;stroke-width:16;stroke-linecap:round;stroke-linejoin:round;stroke-miterlimit:10;}
</style>
<polyline class="st0" points="280,103 280,490 188,582 380,582 299.5,501.5 "/>
<line class="st0" x1="188" y1="605" x2="188" y2="680"/>
<line class="st0" x1="216" y1="605" x2="216" y2="680"/>
<line class="st0" x1="244" y1="605" x2="244" y2="680"/>
<line class="st0" x1="272" y1="605" x2="272" y2="680"/>
<line class="st0" x1="300" y1="605" x2="300" y2="680"/>
<line class="st0" x1="328" y1="605" x2="328" y2="680"/>
<line class="st0" x1="356" y1="605" x2="356" y2="680"/>
<line class="st0" x1="384" y1="605" x2="384" y2="680"/>
<polygon class="st0" points="412,474 611,474 590,680 437,680 "/>
<path class="st0" d="M428,451c0-46.4,37.6-84,84-84s84,37.6,84,84"/>
</svg>
