<?xml version="1.0" encoding="utf-8"?>
<!-- Generator: Adobe Illustrator 22.0.1, SVG Export Plug-In . SVG Version: 6.00 Build 0)  -->
<svg version="1.1" id="Layer_1" xmlns="http://www.w3.org/2000/svg" xmlns:xlink="http://www.w3.org/1999/xlink" x="0px" y="0px"
	 viewBox="0 0 800 800" style="enable-background:new 0 0 800 800;" xml:space="preserve">
<style type="text/css">
	.st0{fill:none;stroke:#8881F0;stroke-width:16;stroke-linecap:round;stroke-linejoin:round;stroke-miterlimit:10;}
</style>
<path class="st0" d="M558,531H388c-6.6,0-12-5.4-12-12V265c0-6.6,5.4-12,12-12h170c6.6,0,12,5.4,12,12v254
	C570,525.6,564.6,531,558,531z"/>
<path class="st0" d="M513,531v32c0,6.6-5.4,12-12,12h-67c-6.6,0-12-5.4-12-12v-32"/>
<path class="st0" d="M422,253v-32c0-6.6,5.4-12,12-12h67c6.6,0,12,5.4,12,12v32"/>
<line class="st0" x1="570" y1="265" x2="376" y2="382.5"/>
<line class="st0" x1="570" y1="290" x2="376" y2="407.5"/>
<line class="st0" x1="570" y1="315" x2="376" y2="432.5"/>
<line class="st0" x1="570" y1="340" x2="376" y2="457.5"/>
<line class="st0" x1="570" y1="365" x2="376" y2="482.5"/>
<line class="st0" x1="570" y1="390" x2="376" y2="507.5"/>
<line class="st0" x1="570" y1="415" x2="385" y2="527"/>
<line class="st0" x1="570" y1="440" x2="422" y2="531"/>
<line class="st0" x1="570" y1="465" x2="468" y2="527"/>
<path class="st0" d="M570,490"/>
<path class="st0" d="M570,515"/>
<path class="st0" d="M261.9,606.5l37.1-378c0,0,0-35.5-35.5-35.5s-34.4,33.4-34.4,33.4L261.9,606.5z"/>
<circle class="st0" cx="264" cy="234" r="14"/>
</svg>
