<svg width="50" height="35" viewBox="0 0 50 35" fill="none" xmlns="http://www.w3.org/2000/svg">
<path d="M50 6.7203C49.693 5.1797 48.923 4.64839 48.1029 4.64839C47.3853 4.64839 46.8719 5.02017 46.2571 5.55148C43.7443 7.64337 40.0243 10.803 35.9774 14.2519V0H2.91834V22.0613L0 27.9725C0.55577 29.388 1.5632 30.1278 2.91834 30.1475V35H35.9774V18.1992C40.9343 14.0892 46.0779 9.84401 50 6.7203ZM5.81811 3.00429H33.0774V16.7246C28.7153 20.4454 24.2212 24.2828 20.6151 27.3344L29.0763 8.20818C28.7184 6.66697 27.6415 5.76403 26.5131 5.76403C25.4874 5.76403 24.7687 6.40154 23.7944 7.41099L5.81811 25.0409V22.9367L13.8455 7.30479C13.6402 6.4017 12.8201 5.71101 12.0512 5.71101C11.1795 5.71101 10.6661 6.29549 10.3082 7.09268L5.81811 16.1874V3.00429ZM33.0774 31.9957H5.81811V28.8448C6.04663 28.6399 6.27615 28.4189 6.5125 28.1852L25.5902 9.27064L17.2818 27.9724C17.8465 29.4074 18.872 30.1493 20.2557 30.1493C21.5892 30.1493 22.7175 29.14 23.8461 28.237C26.3214 26.2136 29.5775 23.5099 33.0774 20.6051V31.9957Z" fill="#8881F0"/>
</svg>
